<!--?xml version="1.0" standalone="no"?-->
              <svg id="sw-js-blob-svg" viewBox="0 0 100 100" xmlns="http://www.w3.org/2000/svg" version="1.1">
                    <defs> 
                        <linearGradient id="sw-gradient" x1="0" x2="1" y1="1" y2="0">
                            <stop id="stop1" stop-color="rgba(255, 255, 255, 1)" offset="0%"></stop>
                            <stop id="stop2" stop-color="rgba(255, 255, 255, 1)" offset="100%"></stop>
                        </linearGradient>
                    </defs>
                <path fill="url(#sw-gradient)" d="M18.6,-34.2C22.9,-29.7,24.4,-22.3,28.4,-16.2C32.4,-10,38.8,-5,40.8,1.1C42.7,7.2,40.2,14.5,35.5,19.4C30.7,24.3,23.9,26.9,17.6,28.9C11.3,31,5.7,32.4,-1.1,34.3C-7.8,36.1,-15.6,38.3,-21.8,36.2C-27.9,34.1,-32.5,27.8,-36.7,21C-40.9,14.3,-44.8,7.1,-44.4,0.2C-44.1,-6.7,-39.5,-13.4,-33.9,-17.8C-28.3,-22.2,-21.7,-24.2,-15.9,-27.8C-10.1,-31.4,-5.1,-36.4,1,-38.2C7.1,-40.1,14.3,-38.6,18.6,-34.2Z" width="100%" height="100%" transform="translate(50 50)" stroke-width="0" style="transition: all 0.3s ease 0s;" stroke="url(#sw-gradient)"></path>
              </svg>