<svg xmlns="http://www.w3.org/2000/svg" id="sw-js-blob-svg" viewBox="0 0 100 100" version="1.1">
                    <defs fill="#000000"> 
                        <linearGradient id="sw-gradient" x1="0" x2="1" y1="1" y2="0" fill="#000000">
                            <stop id="stop1" stop-color="rgba(248, 117, 55, 1)" offset="0%" fill="#000000"/>
                            <stop id="stop2" stop-color="rgba(251, 168, 31, 1)" offset="100%" fill="#000000"/>
                        </linearGradient>
                    </defs>
                <path fill="#fffcfc" d="M18.3,-29C24.6,-28.1,31.2,-25,35.2,-19.8C39.2,-14.6,40.6,-7.3,39.3,-0.8C37.9,5.8,33.9,11.5,29.6,16C25.2,20.6,20.4,23.9,15.5,28.7C10.5,33.5,5.2,39.8,-1.4,42.2C-8.1,44.6,-16.1,43.3,-22,39C-28,34.7,-31.7,27.6,-34.8,20.6C-37.9,13.7,-40.2,6.8,-41.4,-0.7C-42.6,-8.2,-42.7,-16.5,-38.3,-21.1C-33.9,-25.8,-25,-26.8,-17.9,-27.3C-10.7,-27.7,-5.4,-27.5,0.3,-28.1C6,-28.6,12,-29.9,18.3,-29Z" width="100%" height="100%" transform="translate(50 50)" stroke-width="0" style="transition: all 0.3s ease 0s;"/>
              </svg>