<svg xmlns="http://www.w3.org/2000/svg" viewBox="0 0 400 300" width="406" height="306" class="illustration styles_illustrationTablet__1DWOa"><g id="_525_twitter_flatline" data-name="#525_twitter_flatline"><path d="M63.75,207.92v13.87s.24.91,1.71,1.54,168,39.69,195.39,43.28a10.23,10.23,0,0,0,6.26-1.61c9.87-8,39.3-38.32,44.22-43.41a2.55,2.55,0,0,0,.72-1.75l.21-19.52Z" fill="#231f20"></path><path d="M261.62,267.15a5.69,5.69,0,0,1-.83,0c-29.35-3.84-194.93-43.05-195.52-43.31a3.22,3.22,0,0,1-2-1.88.49.49,0,0,1,0-.12V207.92a.5.5,0,0,1,.48-.5l248.51-7.6a.48.48,0,0,1,.37.14.51.51,0,0,1,.15.36l-.21,19.53a3.05,3.05,0,0,1-.86,2.08c-5.67,5.87-34.46,35.54-44.26,43.46A10.78,10.78,0,0,1,261.62,267.15ZM64.25,221.7a2.51,2.51,0,0,0,1.41,1.18c.79.27,167,39.53,195.26,43.23a9.88,9.88,0,0,0,5.88-1.49c9.76-7.9,38.51-37.52,44.17-43.38a2.06,2.06,0,0,0,.58-1.41l.2-19L64.25,208.4Z" fill="#231f20"></path><path d="M311.66,201.23,267.6,246.52c-2,2-6.9,3-11,2.17L67.23,210.84c-3.73-.74-4.59-2.79-2-4.55L125,166.5c2.19-1.46,6.72-2.13,10.14-1.49l172.73,32C311.54,197.68,313.27,199.57,311.66,201.23Z" fill="#fff"></path><path d="M259.61,249.48a15.33,15.33,0,0,1-3.11-.3L67.13,211.33c-2.24-.44-3.6-1.36-3.84-2.57-.12-.57,0-1.71,1.72-2.89l59.66-39.79c2.32-1.54,6.93-2.23,10.51-1.57l172.73,32c2.56.48,4.34,1.54,4.76,2.85a2.19,2.19,0,0,1-.65,2.23h0L268,246.86C266.38,248.49,263,249.48,259.61,249.48ZM132.28,165.26a14,14,0,0,0-7,1.65L65.56,206.7c-1,.64-1.41,1.3-1.29,1.86.15.77,1.29,1.44,3.06,1.79L256.7,248.2c3.88.78,8.71-.15,10.54-2l44.06-45.29.36.35-.36-.35a1.21,1.21,0,0,0,.41-1.23c-.29-.92-1.86-1.77-4-2.17L135,165.5A14.88,14.88,0,0,0,132.28,165.26Z" fill="#231f20"></path><path d="M234.36,239.14h-.1l-147.91-30a.5.5,0,0,1-.39-.39.5.5,0,0,1,.2-.51l54.77-37.88a.55.55,0,0,1,.38-.08l139.44,26.29a.48.48,0,0,1,.39.35.52.52,0,0,1-.15.51L234.69,239A.51.51,0,0,1,234.36,239.14ZM87.7,208.35,234.21,238.1l45.36-40.78L141.33,171.26Z" fill="#d1d3d4"></path><path d="M288.23,217.15l-8.69,8.78c-1.13,1.14-4,1.68-6.44,1.21l-7.27-1.41c-2.42-.47-3.43-1.76-2.26-2.89l8.94-8.69c1.12-1.08,3.93-1.59,6.28-1.14l7.1,1.35C288.26,214.81,289.31,216.06,288.23,217.15Z" fill="#fff"></path><path d="M274.93,227.81a9.63,9.63,0,0,1-1.93-.18l-7.27-1.41c-1.68-.32-2.8-1-3.08-2a1.73,1.73,0,0,1,.57-1.77l8.95-8.69c1.23-1.2,4.18-1.75,6.72-1.27l7.1,1.35c1.68.32,2.81,1,3.09,1.94a1.66,1.66,0,0,1-.5,1.69h0l-8.69,8.78A7.4,7.4,0,0,1,274.93,227.81ZM277,213.35a6.58,6.58,0,0,0-4.15,1.16l-8.94,8.69a.76.76,0,0,0-.31.76c.12.41.8,1,2.31,1.28l7.27,1.41c2.24.44,5-.06,6-1.07l8.69-8.78c.36-.36.28-.61.26-.69-.13-.4-.81-1-2.33-1.26l-7.1-1.35A9.4,9.4,0,0,0,277,213.35Zm11.22,3.8h0Z" fill="#e6e7e8"></path><path d="M93.93,195.33a.52.52,0,0,1-.42-.22.5.5,0,0,1,.14-.69L111,182.66a.5.5,0,1,1,.56.82L94.21,195.24A.51.51,0,0,1,93.93,195.33Z" fill="#d1d3d4"></path><path d="M113.62,182a.52.52,0,0,1-.42-.22.5.5,0,0,1,.14-.69l2.24-1.52a.49.49,0,0,1,.69.13.51.51,0,0,1-.13.7l-2.24,1.51A.51.51,0,0,1,113.62,182Z" fill="#d1d3d4"></path><ellipse cx="188" cy="205.67" rx="41.45" ry="8.15" fill="#e6e7e8"></ellipse><path d="M206.7,122.72s30.84-15.68,36.6-9.47-33.14,36-33.14,36Z" fill="#00ffff"></path><path d="M155.65,202.12a1.5,1.5,0,0,1-1.49-1.39l-1.36-17.21a1.5,1.5,0,0,1,3-.24l1.36,17.22a1.49,1.49,0,0,1-1.38,1.61Z" fill="#231f20"></path><path d="M172.06,207.23a1.5,1.5,0,0,1-.76-.21c-14.18-8.37-23.39-3.31-23.78-3.09a1.5,1.5,0,0,1-1.5-2.59c.44-.26,11-6.21,26.8,3.1a1.49,1.49,0,0,1,.53,2.05A1.51,1.51,0,0,1,172.06,207.23Z" fill="#231f20"></path><path d="M167.72,211.9a1.51,1.51,0,0,1-1.27-.7c-6-9.56-13.32-8.77-13.63-8.72a1.5,1.5,0,0,1-.4-3c.38-.05,9.46-1.17,16.57,10.1a1.5,1.5,0,0,1-.47,2.07A1.46,1.46,0,0,1,167.72,211.9Z" fill="#231f20"></path><path d="M231.24,174a1.54,1.54,0,0,1-.79-.23l-14.66-9.12a1.5,1.5,0,1,1,1.58-2.55L232,171.22a1.5,1.5,0,0,1-.8,2.78Z" fill="#231f20"></path><path d="M227.6,182.34h-.16a1.5,1.5,0,0,1-1.33-1.65c.06-.51,1.53-12.56,18.39-19.74a1.5,1.5,0,1,1,1.17,2.76c-15.25,6.5-16.57,17.19-16.58,17.3A1.5,1.5,0,0,1,227.6,182.34Z" fill="#231f20"></path><path d="M229.75,176.65a1.43,1.43,0,0,1-.72-.18,1.49,1.49,0,0,1-.6-2c.18-.34,4.68-8.31,17.95-7.36a1.5,1.5,0,0,1-.21,3c-11.38-.82-15.07,5.72-15.1,5.79A1.51,1.51,0,0,1,229.75,176.65Z" fill="#231f20"></path><path d="M226.42,127.17a55.13,55.13,0,0,1-.21,10.84c-.12,1-.27,2-.46,3.08-3.49,19.66-18.7,43-55.84,49.5a72.85,72.85,0,0,1-21.28.48c-10.42-1.25-20.44-4.6-28.26-9.7-19.3-12.6-29.93-24.57-27.94-28.12s17.1,2,21.7-1.71c2.33-1.9,3-7.55,3-12.68-.13-1-.25-2-.33-3.07a54.51,54.51,0,0,1-.12-6.38v-.07h0c1-27.49,19.2-50.87,46.62-57.42C204.18,62.15,224,96.89,226.42,127.17Z" fill="#00ffff"></path><path d="M199.75,84a62.22,62.22,0,0,1,2.7,10.43,86.79,86.79,0,0,1,1.53,12l19.17,12.62s-34.61.49-37.59-3.88S199.75,84,199.75,84Z" fill="#231f20"></path><path d="M219.33,119.6c-9.39,0-31.64-.4-34.18-4.13-3.08-4.52,12.4-28.93,14.18-31.7a.51.51,0,0,1,.47-.23.49.49,0,0,1,.41.32,62.37,62.37,0,0,1,2.73,10.53,96,96,0,0,1,1.53,11.78l18.95,12.48a.5.5,0,0,1,.21.56.49.49,0,0,1-.47.36C222.56,119.58,221.2,119.6,219.33,119.6ZM199.62,85.18C192.85,95.86,184,112,186,114.91s21.75,3.79,35.53,3.68l-17.8-11.72a.5.5,0,0,1-.23-.41A87.79,87.79,0,0,0,202,94.56,67.56,67.56,0,0,0,199.62,85.18Z" fill="#231f20"></path><path d="M223.15,119.07s-19.19,6.12-33,6.22c-5.28,0-11.08-7.67-10.41-12.71C181.16,101.49,196.06,86,199.75,84c0,0-8.31,19.69-9.32,28.39C190.43,112.43,214,119.79,223.15,119.07Z" fill="#fff"></path><path d="M190.07,125.79c-2.37,0-5-1.45-7.23-4-2.57-2.91-4-6.56-3.64-9.29,1.49-11.3,16.61-27,20.32-28.92a.5.5,0,0,1,.57.07.52.52,0,0,1,.12.57c-.08.19-8,19.1-9.23,27.83,3.14,1,23.79,7.16,32.13,6.5a.5.5,0,0,1,.19,1c-.19.06-19.42,6.14-33.18,6.24Zm8.58-40.4c-5,3.88-17.14,17.32-18.46,27.26-.32,2.46,1,5.8,3.4,8.5,2,2.31,4.4,3.64,6.48,3.64h0c10.26-.08,23.63-3.52,29.67-5.24-10.43-.71-28.64-6.38-29.5-6.64a.52.52,0,0,1-.35-.54C190.79,105,196.67,90.22,198.65,85.39Z" fill="#231f20"></path><path d="M225.75,141.09c-3.49,19.66-18.7,43-55.84,49.5a72.85,72.85,0,0,1-21.28.48c-.19-1.24-.33-2.5-.43-3.76a50.34,50.34,0,0,1,77.55-46.22Z" fill="#fff"></path><path d="M130,142.35c-13.68-1.56-46.6-22.7-45.62-29.37s58.46,1.09,58.46,1.09" fill="#00ffff"></path><path d="M137.75,113.92h0L106.36,111a.5.5,0,1,1,.1-1l31.34,2.9a.5.5,0,0,1-.05,1Z" fill="#231f20"></path><path d="M132.61,145.84h-.08c-10.86-1.69-39.54-21.92-40.76-22.78a.5.5,0,0,1,.58-.82c.29.21,29.71,21,40.33,22.61a.5.5,0,0,1-.07,1Z" fill="#231f20"></path><path d="M163.29,191.86a.5.5,0,0,1-.08-1c19.81-3,45.85-11.58,57.4-35.71a55.37,55.37,0,0,0,5.31-27.92.5.5,0,0,1,1-.13,56.48,56.48,0,0,1-5.37,28.44c-6.48,13.55-21.83,30.86-58.18,36.31Z" fill="#231f20"></path><path d="M215.73,103.4s-.23,5.36,2.22,7.55,10.19,2.22,10.7,3,10.63,21.16,12,22.3,6.26-1.21,9.8-5.14c0,0-10.37-18.79-10.82-20.46s1.77-9.12,1.5-12.39Z" fill="#fff"></path><path d="M241.59,137a1.91,1.91,0,0,1-1.29-.39c-1-.8-5.09-8.81-9.61-17.66-1.23-2.43-2.3-4.52-2.45-4.74a18.77,18.77,0,0,0-2.67-.49c-2.67-.39-6.31-.94-7.95-2.39-2.6-2.31-2.4-7.71-2.38-7.94a.5.5,0,0,1,.39-.47L241,97.74a.48.48,0,0,1,.4.09.48.48,0,0,1,.19.36,32.88,32.88,0,0,1-.87,7.2c-.41,2.17-.83,4.41-.64,5.1.32,1.18,6.62,12.82,10.78,20.35a.52.52,0,0,1-.07.58C247.85,134.69,243.88,137,241.59,137Zm-25.36-33.18c0,1.24.17,5.09,2.05,6.76,1.42,1.26,4.89,1.77,7.43,2.15,2.16.32,3,.47,3.35.92.17.23.94,1.74,2.52,4.84,2.76,5.4,8.49,16.62,9.36,17.35s5.36-1.06,8.87-4.82c-1.65-3-10.26-18.65-10.69-20.26-.24-.87.08-2.67.62-5.54a41.63,41.63,0,0,0,.88-6.38Z" fill="#231f20"></path><path d="M238.21,101.92a6.56,6.56,0,0,0-1.07,3.68c.08,2,3,6.17,3,6.17l5.54-4.15L242.21,101Z" fill="#231f20"></path><path d="M240.09,112.27H240a.52.52,0,0,1-.33-.21c-.12-.17-3-4.27-3-6.43a7,7,0,0,1,1.16-4,.52.52,0,0,1,.3-.2l4-.91a.51.51,0,0,1,.56.26l3.41,6.61a.51.51,0,0,1-.14.63l-5.54,4.15A.54.54,0,0,1,240.09,112.27Zm-1.57-9.91a6,6,0,0,0-.88,3.22c.05,1.38,1.67,4.11,2.57,5.47l4.78-3.57-3-5.89Z" fill="#231f20"></path><path d="M271.19,111.65s-17.4-11.07-27.07-10.49a51.82,51.82,0,0,0-7.27,1c-5.66,1.12-11.3,2.79-15.26,3.28-7.88,1-14-1.09-14.7-9.33-.6-7,2.63-8.63,9.51-11.15,3.4-1.25,10-2.79,16.22-5.08a38.8,38.8,0,0,0,10-5.13c7-5.43,11.56-16.86,11.56-16.86Z" fill="#fff"></path><path d="M271.19,112.15a.5.5,0,0,1-.27-.08c-.17-.11-17.34-11-26.77-10.42a53.77,53.77,0,0,0-7.2,1c-2.32.46-4.62,1-6.85,1.54a83.63,83.63,0,0,1-8.45,1.74c-5.21.64-9.15-.1-11.72-2.19-2.06-1.68-3.25-4.23-3.54-7.59-.63-7.46,2.94-9.13,9.83-11.66,1.45-.53,3.46-1.11,5.78-1.78,3.22-.93,6.88-2,10.45-3.3a37.4,37.4,0,0,0,9.91-5.06c6.78-5.28,11.36-16.54,11.41-16.65a.42.42,0,0,1,.48-.31.49.49,0,0,1,.46.35l17,53.74a.49.49,0,0,1-.17.55A.57.57,0,0,1,271.19,112.15Zm-26.32-11.52c8.44,0,21.48,7.49,25.43,9.89L254.16,59.34c-1.41,3.14-5.48,11.38-11.19,15.82a38.23,38.23,0,0,1-10.18,5.21c-3.6,1.33-7.27,2.39-10.51,3.32-2.3.66-4.29,1.24-5.71,1.76-6.78,2.49-9.75,3.88-9.18,10.64.26,3.07,1.33,5.39,3.17,6.89,2.35,1.91,6,2.58,11,2a83.21,83.21,0,0,0,8.34-1.72c2.24-.54,4.55-1.09,6.88-1.55a52.73,52.73,0,0,1,7.34-1Q244.48,100.63,244.87,100.63Z" fill="#231f20"></path><path d="M238.21,101.92c-5.66,1.12-12.69,2.84-16.62,3.54-9,1.58-13.39,0-14.6-8.18-1.25-8.42,2.53-9.78,9.41-12.3,3.4-1.25,10-2.79,16.22-5.08,0,0-2,4.62-.31,12.36A17.43,17.43,0,0,0,238.21,101.92Z" fill="#231f20"></path><path d="M216.25,106.5a10,10,0,0,1-6-1.59c-2-1.44-3.17-3.84-3.73-7.56-1.3-8.79,2.82-10.3,9.66-12.81,1.52-.56,3.53-1.14,5.85-1.81,3.22-.93,6.88-2,10.45-3.3a.5.5,0,0,1,.53.12.51.51,0,0,1,.1.55s-1.93,4.59-.29,12.05a17,17,0,0,0,5.72,9.36.51.51,0,0,1,.19.51.52.52,0,0,1-.39.39c-2.61.51-5.49,1.15-8.27,1.77-3.21.72-6.24,1.39-8.37,1.77A32.14,32.14,0,0,1,216.25,106.5Zm15.56-25.78c-3.28,1.17-6.59,2.12-9.53,3-2.3.66-4.29,1.24-5.71,1.76C209.7,88,206.3,89.22,207.48,97.2c.51,3.44,1.57,5.63,3.33,6.9,2.11,1.52,5.41,1.79,10.69.86,2.11-.37,5.13-1,8.33-1.75,2.43-.54,4.93-1.1,7.27-1.58a18.15,18.15,0,0,1-5.28-9.27A24,24,0,0,1,231.81,80.72Z" fill="#231f20"></path><path d="M277.05,112.67c-6,1.61-13.46-6-18.56-18a70,70,0,0,1-3.25-9.43,70.94,70.94,0,0,1-1.91-9.61c-1.64-13,1-23.45,7-25.06,7.43-2,17.19,10.27,21.82,27.42S284.48,110.66,277.05,112.67Z" fill="#fff"></path><path d="M275.44,113.38c-5.76,0-12.55-7.11-17.41-18.51a71.23,71.23,0,0,1-3.27-9.5,72.69,72.69,0,0,1-1.93-9.68c-1.72-13.66,1.23-23.95,7.36-25.61,3.8-1,8.23,1.36,12.48,6.71s7.7,12.71,9.95,21.07,3,16.61,2,23.22c-1,6.76-3.63,11-7.43,12.07h0A6.76,6.76,0,0,1,275.44,113.38ZM262,50.85a6,6,0,0,0-1.52.2c-5.54,1.49-8.26,11.57-6.62,24.52a70.84,70.84,0,0,0,1.89,9.54A70.07,70.07,0,0,0,259,94.47c5.08,11.92,12.48,19.2,18,17.71h0c3.39-.91,5.77-4.9,6.7-11.24s.25-14.59-2-22.82S276,62.54,271.89,57.41C268.48,53.12,265,50.85,262,50.85Z" fill="#231f20"></path><path d="M270.41,89.22l-11.92,5.45a70,70,0,0,1-3.25-9.43,70.94,70.94,0,0,1-1.91-9.61l13.86-1.15Z" fill="#231f20"></path><path d="M258.49,95.17a.48.48,0,0,1-.18,0,.5.5,0,0,1-.28-.27,71.23,71.23,0,0,1-3.27-9.5,72.69,72.69,0,0,1-1.93-9.68.58.58,0,0,1,.11-.38.52.52,0,0,1,.35-.18L267.15,74a.47.47,0,0,1,.52.39l3.23,14.74a.5.5,0,0,1-.28.56l-11.93,5.46A.45.45,0,0,1,258.49,95.17Zm-4.6-19.09a72.64,72.64,0,0,0,1.83,9,70.86,70.86,0,0,0,3,8.89l11.09-5.07-3-13.92Z" fill="#231f20"></path><ellipse cx="268.77" cy="81.86" rx="3.51" ry="7.54" transform="translate(-11.38 60.54) rotate(-12.59)" fill="#fff"></ellipse><path d="M270.05,89.75c-2.07,0-4.28-2.93-5.19-7a13.41,13.41,0,0,1-.16-5.64c.38-1.74,1.2-2.83,2.32-3.08s2.32.39,3.41,1.8A13.42,13.42,0,0,1,272.68,81h0c1,4.4,0,8.23-2.16,8.72A1.83,1.83,0,0,1,270.05,89.75ZM267.49,75a1,1,0,0,0-.25,0c-.71.15-1.28,1-1.57,2.31a12.55,12.55,0,0,0,.16,5.21c.91,4,3.11,6.51,4.47,6.22s2.31-3.48,1.41-7.53h0a12.3,12.3,0,0,0-2.08-4.78A3.09,3.09,0,0,0,267.49,75Z" fill="#231f20"></path><path d="M219.49,86.21a.5.5,0,0,1-.14-1L228,82.76a.5.5,0,1,1,.27,1l-8.65,2.46Z" fill="#fff"></path><path d="M219.63,87.94a.5.5,0,0,1-.13-1l8.65-2.46a.49.49,0,0,1,.62.34.5.5,0,0,1-.34.62l-8.66,2.46Z" fill="#fff"></path><path d="M219.8,89.94a.51.51,0,0,1-.14-1l8.66-2.46a.5.5,0,1,1,.27,1l-8.65,2.47Z" fill="#fff"></path><ellipse cx="169.21" cy="96.55" rx="3.1" ry="5.13" transform="translate(-25.53 91.17) rotate(-28.13)" fill="#231f20"></ellipse><ellipse cx="184.46" cy="87.57" rx="3.1" ry="5.13" transform="translate(-17.19 119.73) rotate(-34.46)" fill="#231f20"></ellipse><path d="M274.25,82.84a28.05,28.05,0,0,0,5.25-1.48,20.72,20.72,0,0,0,4.39-2.61,9.92,9.92,0,0,1-9-6.7,10.06,10.06,0,0,0,4.23-.26,9.76,9.76,0,0,1-5.5-3.46,9.22,9.22,0,0,1-2.08-6,11.13,11.13,0,0,0,4.13,1c-4.27-4.09-5.27-8.7-2.77-12.83a34.5,34.5,0,0,0,5.72,5.22,28.44,28.44,0,0,0,13.45,4.83c.85.09.74-.37.67-.88a9.65,9.65,0,0,1,8.1-10.9,12.13,12.13,0,0,0,2.95,0,9.37,9.37,0,0,1,5.07,2.42,1.33,1.33,0,0,0,1.4.33,24.55,24.55,0,0,0,4.91-1.93c0,1.36-1.16,3-3.67,5a7.42,7.42,0,0,0,2.18-.38c.67-.19,1.34-.43,2-.6.2-.05.44-.36.65-.05s-.14.42-.27.59a16.72,16.72,0,0,1-3.32,3.4A1.71,1.71,0,0,0,312,59.1c-.39,11.1-5,19.75-15,25.07-8.31,4.43-18.53,3.86-27.2-1.26h2.59A3.38,3.38,0,0,0,274.25,82.84Z" fill="#00ffff"></path><path d="M300.29,102.48a15.75,15.75,0,0,0,2.79,1.6,11.71,11.71,0,0,0,2.91.77,5.83,5.83,0,0,1-.9-6.56A5.85,5.85,0,0,0,307,100a5.74,5.74,0,0,1-.82-3.75,5.45,5.45,0,0,1,1.68-3.36A6.52,6.52,0,0,0,309.08,95c0-3.48,1.48-5.81,4.26-6.46a20.45,20.45,0,0,0,.16,4.56,16.87,16.87,0,0,0,3.53,7.67c.31.39.46.16.64-.08a5.52,5.52,0,0,1,4-2.21,5.44,5.44,0,0,1,3.92,1.12,6.82,6.82,0,0,0,1.22,1.24,5.47,5.47,0,0,1,1.07,3.14.78.78,0,0,0,.44.72,14.17,14.17,0,0,0,2.84,1.27c-.56.58-1.73.75-3.63.54a4.09,4.09,0,0,0,1.06.76c.36.21.73.39,1.08.61.11.06.34,0,.3.25s-.24.11-.37.13a10.1,10.1,0,0,1-2.8,0,1,1,0,0,0-.93.31c-4.84,4.42-10.41,6-16.76,4a16.36,16.36,0,0,1-10.72-12l1.07,1.09A1.93,1.93,0,0,0,300.29,102.48Z" fill="#00ffff"></path><path d="M277,128.94a18.65,18.65,0,0,0,2.64,2.69,14.17,14.17,0,0,0,3,1.79,6.85,6.85,0,0,1,1.06-7.68,6.85,6.85,0,0,0,1.57,2.47,6.72,6.72,0,0,1,.26-4.48,6.41,6.41,0,0,1,2.95-3.26,7.9,7.9,0,0,0,.74,2.84c1.06-3.94,3.52-6.08,6.85-5.94a23.49,23.49,0,0,0-1.26,5.2,19.59,19.59,0,0,0,1.55,9.74c.23.55.47.33.75.12a6.66,6.66,0,0,1,9.29,1.28,8.13,8.13,0,0,0,1,1.78,6.41,6.41,0,0,1,.22,3.87.91.91,0,0,0,.27.95,16.56,16.56,0,0,0,2.8,2.34c-.82.47-2.2.29-4.27-.55a5.06,5.06,0,0,0,1,1.2c.33.34.7.66,1,1,.1.1.36.15.25.37s-.31.06-.45,0a11.51,11.51,0,0,1-3.16-.88,1.19,1.19,0,0,0-1.14.06c-6.85,3.45-13.63,3.52-20.16-.74-5.45-3.56-8.49-9.93-8.28-16.88l.86,1.56A2.24,2.24,0,0,0,277,128.94Z" fill="#00ffff"></path><path d="M283,44.56a10.24,10.24,0,0,0,1.85-.75,7,7,0,0,0,1.5-1.13,3.63,3.63,0,0,1-3.55-2.07,3.83,3.83,0,0,0,1.53-.27,3.65,3.65,0,0,1-2.15-1,3.4,3.4,0,0,1-1-2.11,4,4,0,0,0,1.54.21c-1.72-1.31-2.27-2.95-1.52-4.56a12.43,12.43,0,0,0,2.29,1.67,10.38,10.38,0,0,0,5.09,1.23c.32,0,.26-.17.21-.35a3.45,3.45,0,0,1,.47-2.81,3.36,3.36,0,0,1,2.05-1.48A4.81,4.81,0,0,0,292.4,31a3.38,3.38,0,0,1,1.94.68.49.49,0,0,0,.53.06,9,9,0,0,0,1.71-.9c.06.5-.3,1.14-1.14,2a2.36,2.36,0,0,0,.78-.22c.24-.1.47-.21.71-.3.08,0,.15-.15.24-.05s0,.16-.08.23A6,6,0,0,1,296,33.83a.62.62,0,0,0-.2.57c.3,4.06-1.05,7.4-4.46,9.73a10.15,10.15,0,0,1-10,.63l.94-.1A1.28,1.28,0,0,0,283,44.56Z" fill="#00ffff"></path><path d="M298.83,81.71a1.57,1.57,0,0,1-1.63.07Z" fill="#00ffff"></path></g></svg>